<svg preserveAspectRatio="none" width="100%" height="100%" overflow="visible" style="display: block;" viewBox="0 0 153.022 43.8291" fill="none" xmlns="http://www.w3.org/2000/svg">
<path id="Union" d="M20.1759 3.48241C25.0575 0.618204 29.1407 -0.22511 31.8311 0.0488202C33.7799 0.246298 36.1263 2.30636 34.6456 5.33691C32.4713 9.77828 29.4695 9.40594 29.5821 7.2871C29.6283 6.73369 29.8178 6.19813 30.1348 5.7246C30.4519 5.25104 30.8879 4.85229 31.4063 4.56249C31.9557 4.29097 32.5722 4.14876 33.1983 4.15527C33.6447 3.82217 33.9548 1.3945 30.4581 2.19433C26.9638 2.99199 22.7061 6.13177 18.6885 10.1836C14.6709 14.2355 8.42069 21.8905 6.87507 29.9287C6.15507 33.6585 6.63538 40.4563 16.2882 40.3818C20.0129 40.3555 24.5418 39.3239 29.4161 38.2129C35.2816 36.8783 41.6489 35.4291 47.7208 35.4707C51.5939 35.4555 55.3983 36.4072 58.7227 38.2217C61.6001 39.8586 65.0463 42.2006 66.2706 43.8135L66.2882 43.8291C62.7232 41.5762 58.4546 40.4385 54.1221 40.5859C52.9489 40.6139 51.7992 40.8951 50.7677 41.4062C49.7363 41.9173 48.8517 42.6436 48.1866 43.5264C46.3385 40.5835 42.6901 38.7777 37.0479 38.8193C32.2696 38.8676 27.5106 39.9463 23.0323 40.9609C18.9643 41.8813 15.1288 42.7512 11.7208 42.749C4.84502 42.7489 -0.161377 38.8042 0.00397878 31.8008C0.299178 19.5201 11.6582 8.46801 20.1759 3.48241ZM122.021 14.6455C127.272 8.70017 137.756 -1.52302 141.869 0.953117C142.87 1.56232 142.414 3.65992 141.061 6.20409C140.451 6.3794 139.832 6.52668 139.205 6.64648C139.954 5.50926 140.523 4.28009 140.89 2.99609C141.509 -0.0718678 133.654 6.39685 128.043 13.3633C124.667 17.5594 121.668 21.9985 119.076 26.6367C120.092 26.0743 121.058 25.4472 121.973 24.7549C124.476 22.8577 126.855 20.8289 129.101 18.6797C131.254 16.6533 133.271 14.5174 135.149 12.2705C135.749 12.2457 136.346 12.1897 136.94 12.1035C134.89 14.6452 132.654 17.0575 130.248 19.3242L129.649 19.8721C127.582 21.761 125.4 23.7574 123.481 25.2344C121.603 26.6966 119.624 28.0469 117.557 29.2773C117.557 29.2773 112.627 38.3155 115.316 38.8984C116.885 39.2399 119.988 34.8809 119.988 34.8809C120.028 34.826 124.032 29.2325 126.468 26.6963C129.777 23.2558 132.641 21.2765 135.487 21.2217C137.141 21.1934 138.12 22.7915 138.137 22.8193L138.922 21.7109H143.748C143.71 21.7699 134.732 35.6769 134.014 36.7266L134.025 36.7353C133.377 37.6843 132.636 39.5071 134.784 38.3721C137.398 36.9914 141.123 31.8242 141.123 31.8242H142.808C141.272 33.9843 139.561 36.0366 137.689 37.9629C135.041 40.6452 131.808 43.0799 129.53 42.8389C126.871 42.556 127.707 39.3672 127.707 39.3672C127.707 39.3672 123.886 43.0506 121.265 42.8008C117.73 42.4432 118.781 38.4734 118.793 38.4297C118.763 38.4628 114.751 42.9322 112.034 42.7969C107.739 42.5732 108.819 37.7869 110.014 34.4385C110.655 32.6416 111.245 31.2305 111.245 31.2305C111.245 31.2305 110.82 31.3333 109.9 31.456C109.42 31.5174 108.557 31.5615 108.557 31.5615C107.57 33.1508 106.497 34.6883 105.339 36.1738C103.909 37.9094 97.8338 43.8728 94.2481 42.6787C90.9385 41.5742 92.0328 36.9475 93.96 33.2637C96.7706 27.9057 104.678 20.2077 109.238 21.2178C113.966 22.2675 109.344 30.1416 109.344 30.1416C109.344 30.1448 109.347 30.1709 109.392 30.1914C109.691 30.2411 109.999 30.2255 110.29 30.1455C110.884 30.0359 111.461 29.8793 112.021 29.6748C112.021 29.6748 116.772 20.5887 122.021 14.6455ZM102.463 0.320305C106.458 -0.200478 107.77 1.39302 107.784 1.41112C110.197 0.507365 112.803 0.114079 115.406 0.260734C118.761 0.468915 121.596 2.01865 124.653 3.68847C126.065 4.45982 127.524 5.2575 129.106 5.96093C127.807 7.10045 126.566 8.28376 125.445 9.40136L125.455 9.40624H125.443L125.445 9.40136C123.468 8.47443 121.774 7.43803 120.194 6.47167C118.822 5.63017 117.533 4.84332 116.22 4.22753C113.53 2.96754 111.792 2.43968 109.617 2.70702C109.314 2.75521 109.015 2.82258 108.723 2.91015C108.723 2.91015 109.844 6.40183 105.387 12.2705C100.872 18.2136 96.7798 18.1824 95.6134 16.541C94.3945 14.8163 95.9693 11.3011 98.5948 8.17187C101.348 4.90021 106.184 2.18945 106.184 2.18945C106.184 2.18945 104.643 1.33077 100.856 3.29198C97.1667 5.19415 90.7964 9.73692 84.9044 17.4004C79.015 25.0613 77.8365 29.2711 76.9893 32.5976C76.1421 35.9243 76.9128 39.4707 80.9425 39.4707C84.9719 39.4705 89.6662 33.8586 90.9864 31.9189C93.4488 28.2833 95.0541 22.7076 91.7061 23.4746C90.055 23.8494 88.718 25.5219 87.878 27.126C87.3425 28.1558 86.9343 29.2372 86.6612 30.3496C85.4913 30.7898 84.3927 31.3737 83.3956 32.085C82.2852 32.8388 81.2525 33.6733 80.2989 34.5879C80.2989 34.5879 80.2991 31.934 82.627 27.6279C84.9598 23.3217 89.1938 21.3735 91.5938 21.1894C93.7634 21.0318 96.5876 22.7125 94.1925 28.9228C91.7972 35.1312 84.7437 42.6636 77.3253 42.7578C70.4805 42.8431 66.0019 34.8654 75.5323 20.9521C86.0753 5.56213 98.4451 0.84423 102.463 0.320305ZM136.479 23.457C135.735 23.4242 134.712 23.5564 132.046 26.2539C129.829 28.4869 127.923 30.9613 126.37 33.6211C124.841 36.1696 124.224 38.0696 125.103 38.5605C125.387 38.6945 125.716 38.726 126.024 38.6484C126.622 38.5168 127.294 38.0084 128.321 36.9238C128.705 36.5184 129.123 35.9746 129.603 35.3545L129.605 35.3476L129.97 34.8769C131.736 32.6856 136.173 25.7739 137.052 24.3799V24.3818C137.111 24.2874 137.16 24.1877 137.196 24.084C137.173 23.9205 137.089 23.7692 136.958 23.6553C136.828 23.5414 136.658 23.4711 136.479 23.457ZM102.989 28.083C102.951 28.024 102.914 28.0619 102.876 28.1035L102.85 28.1269C102.799 28.1752 102.598 28.3575 100.877 30.6562C99.149 32.9704 96.5116 37.7346 98.9044 38.5498C100.44 39.0687 102.989 36.6171 104.388 34.9912C105.335 33.8575 106.191 32.6676 106.956 31.4228C107.028 31.2829 106.956 31.2501 106.879 31.2217C106.078 30.8857 105.332 30.4505 104.661 29.9287C103.985 29.4124 103.418 28.7863 102.989 28.083ZM17.7188 22.6689C20.9827 16.7741 28.7272 9.52881 33.4073 10.6152C38.0873 11.7066 34.2188 18.6934 34.2188 18.6934C34.2188 18.6934 35.1549 18.8031 37.4034 17.4053C38.3298 16.8289 39.34 15.9712 40.42 15.0596C43.1104 12.7848 46.2241 10.1509 49.505 10.6045C51.6744 10.9049 53.6968 12.9389 50.9298 16.7978C50.0345 18.025 48.5585 19.1464 47.421 18.0508C46.7136 17.3757 47.3324 16.1267 48.0762 15.2744C48.3677 14.9284 48.7477 14.6527 49.1827 14.4717C49.6177 14.2906 50.0951 14.2102 50.5723 14.2363C50.5723 14.2363 51.3356 12.6363 49.3946 12.6689C47.8202 12.6974 43.8402 16.0417 41.5938 19.4209C39.5587 22.537 36.444 27.8244 39.5587 28.9795C42.4315 30.0379 47.9017 24.1123 50.4337 21.0049C52.9658 17.8972 58.7303 10.8589 63.5733 10.5762C65.2389 10.4775 66.2305 11.8672 66.2305 11.8672L66.7921 11.0478H71.6231C71.5769 11.1185 62.5239 24.9621 61.8096 26.0039C61.2505 26.8213 60.506 28.677 62.5675 27.6406C64.6315 26.6041 68.9259 21.5615 68.9259 21.5615L70.5909 21.5644C70.5425 21.6283 62.1531 32.6817 57.4005 32.1748C54.7572 31.8959 55.5192 28.9365 55.5284 28.9014C55.4948 28.9371 51.7716 32.8877 48.3575 32.0937C45.2647 31.3703 47.2307 26.6993 47.253 26.6465C47.0546 26.787 46.8683 26.9413 46.6964 27.1084C44.9323 28.6578 39.4648 33.4547 35.4425 32.0391C30.5134 30.2967 33.0646 24.4982 34.003 22.7539C34.8022 21.2857 35.6856 19.8525 35.6856 19.8525C35.6856 19.8525 34.9264 20.0501 34.4512 20.1465C33.9784 20.2451 33.2657 20.3721 33.2657 20.3721C33.245 20.4028 30.9192 23.8556 29.4952 25.5791C28.0643 27.3108 21.9835 33.2707 18.4005 32.081C14.8197 30.8955 15.7125 26.3176 17.7188 22.6689ZM109.154 23.3437C107.887 22.4716 104.674 24.5135 104.643 26.6172C104.611 28.7204 106.914 29.7309 107.467 29.8672C107.779 29.9461 107.887 29.9332 108.041 29.7031C108.529 28.9362 108.956 28.1422 109.322 27.3213V27.3144C109.771 26.2494 110.335 24.1612 109.154 23.3437ZM64.5909 12.6953C63.8469 12.6625 62.6109 12.8927 60.1104 15.7148C57.6096 18.5396 55.7418 20.786 54.3546 23.1221C52.8188 25.6726 52.152 27.4739 53.0323 27.9629C53.3175 28.0941 53.6459 28.125 53.9542 28.0488C54.5302 27.9173 55.2761 27.3907 56.3057 26.3125C56.7857 25.8085 57.3359 25.1297 57.9766 24.332H57.9669C59.9141 21.8857 65.2755 13.378 65.3106 13.3223C65.2871 13.1584 65.2033 13.0066 65.0723 12.8926C64.9413 12.7785 64.7713 12.7089 64.5909 12.6953ZM27.1339 17.2861C27.0955 17.2274 27.0521 17.2717 27.0137 17.3154L26.9971 17.332C26.9491 17.3759 26.6925 17.6878 24.9669 20.0019C23.2389 22.314 20.6806 27.0446 23.0782 27.8555C24.6118 28.3747 27.1897 25.916 28.5841 24.29C29.6354 23.0228 30.6064 21.7016 31.4923 20.333C31.5498 20.193 31.4925 20.162 31.4063 20.1357L31.4161 20.1289C30.5421 19.8782 29.7057 19.5263 28.9288 19.083C28.1701 18.6363 27.5515 18.0169 27.1339 17.2861ZM33.3428 12.748C32.0756 11.8715 28.8623 13.9187 28.8311 16.0225C28.798 18.1259 31.7449 18.7835 32.1241 18.7988C32.209 18.8192 32.299 18.8133 32.38 18.7822C32.4612 18.7509 32.5291 18.6951 32.5723 18.625C32.9179 18.0086 33.2275 17.3766 33.501 16.7295C33.9474 15.6666 34.5094 13.5781 33.3311 12.7607L33.3428 12.748ZM107.198 3.36425C107.174 3.37303 104.314 4.42151 100.994 7.76464C97.6607 11.1219 95.7148 14.8994 97.1524 15.8965C97.7044 16.2777 98.9759 16.3439 101.289 14.4443C103.423 12.7537 105.098 10.6333 106.181 8.25097C107.587 5.11722 107.247 3.58296 107.201 3.38573L107.198 3.36425ZM77.1046 14.9111H72.5157L75.1104 11.0801H79.6993L77.1046 14.9111ZM153.022 0.0703046C152.088 1.67409 150.944 3.1686 149.614 4.51952C145.964 8.29318 139.102 12.7264 131.266 11.3086H131.269L131.256 11.3057C132.397 10.0337 133.593 8.80439 134.842 7.62011C139.361 8.01891 144.063 6.21339 147.461 4.22362L147.482 4.22753C149.5 3.04401 151.359 1.64867 153.022 0.0703046Z" fill="var(--fill-0, white)"/>
</svg>
