<svg xmlns="http://www.w3.org/2000/svg" viewBox="0 0 1255 300" aria-hidden="true" class="w-auto h-6 md:h-8"><g transform="translate(0,300) scale(0.1,-0.1)" fill="currentColor" stroke="none"><path d="M7000 2850 c0 -16 7 -20 34 -20 63 0 141 -20 211 -54 125 -62 157 -104 535 -701 189 -297 345 -545 347 -552 3 -7 -165 -265 -372 -575 -305 -456 -390 -576 -447 -632 -91 -88 -184 -134 -296 -144 -62 -6 -77 -10 -80 -24 -3 -17 23 -18 442 -18 439 0 446 0 446 20 0 16 -7 20 -35 20 -102 0 -192 106 -166 196 5 16 145 245 311 508 243 382 305 475 315 464 7 -7 73 -110 147 -228 75 -118 204 -323 288 -455 84 -132 159 -255 167 -274 20 -46 8 -104 -30 -147 -39 -45 -76 -64 -127 -64 -33 0 -40 -3 -40 -20 0 -20 7 -20 475 -20 468 0 475 0 475 20 0 17 -7 20 -47 20 -110 0 -223 51 -320 145 -51 50 -129 165 -448 667 l-385 608 351 517 c379 561 422 614 540 672 65 31 144 51 205 51 27 0 34 4 34 20 0 20 -7 20 -440 20 -433 0 -440 0 -440 -20 0 -16 7 -20 33 -20 47 -1 111 -33 137 -70 15 -22 25 -52 28 -87 l4 -53 -115 -183 c-63 -100 -167 -265 -232 -367 -65 -102 -136 -215 -159 -252 -22 -37 -43 -67 -46 -67 -9 0 -525 818 -544 863 -17 39 -18 51 -8 84 7 22 22 52 34 67 26 33 91 64 136 65 25 0 32 4 32 20 0 20 -7 20 -475 20 -468 0 -475 0 -475 -20z"></path><path d="M5197 2623 c-4 -3 -7 -168 -7 -367 l0 -360 -29 40 c-82 110 -232 174 -406 174 -171 0 -307 -54 -420 -165 -137 -136 -215 -344 -215 -582 0 -327 141 -601 365 -707 96 -46 163 -61 280 -61 184 0 317 55 404 165 l41 52 0 -91 0 -91 190 0 190 0 0 1000 0 1000 -193 0 c-107 0 -197 -3 -200 -7z m-189 -844 c136 -67 192 -191 192 -424 0 -183 -36 -300 -117 -381 -59 -59 -113 -79 -218 -79 -81 0 -95 3 -144 30 -131 73 -201 224 -201 438 0 168 47 297 137 376 58 52 110 69 209 70 71 1 88 -3 142 -30z"></path><path d="M806 2099 c-74 -18 -172 -78 -240 -149 l-66 -68 0 94 0 94 -190 0 -190 0 0 -720 0 -720 199 0 200 0 3 473 3 472 26 55 c34 73 68 111 120 137 100 49 224 38 287 -25 66 -66 66 -63 69 -614 l4 -498 200 0 199 0 0 458 c0 533 3 554 84 640 41 45 73 60 138 68 84 10 161 -11 207 -54 70 -66 71 -79 71 -629 l0 -483 200 0 201 0 -3 558 c-3 554 -3 557 -26 621 -72 199 -210 289 -455 299 -191 7 -300 -36 -428 -169 l-56 -60 -13 32 c-34 82 -149 162 -268 188 -62 13 -220 13 -276 0z"></path><path d="M3056 2094 c-145 -26 -279 -95 -351 -179 -65 -76 -89 -133 -109 -252 l-5 -33 198 0 199 0 7 33 c15 66 57 127 106 153 79 41 270 36 336 -9 50 -33 76 -96 71 -165 -4 -48 -9 -60 -37 -83 -50 -41 -115 -56 -381 -89 -287 -36 -436 -115 -508 -268 -25 -52 -27 -67 -27 -177 1 -146 21 -207 95 -288 92 -101 204 -141 395 -141 183 0 330 43 427 125 54 45 58 46 58 18 0 -11 5 -40 11 -65 l11 -44 204 0 205 0 -15 28 c-29 56 -36 183 -36 632 0 460 -4 519 -40 590 -57 111 -202 194 -386 220 -104 14 -333 11 -428 -6z m452 -891 c-6 -155 -26 -212 -96 -274 -62 -54 -129 -72 -246 -67 -112 5 -161 27 -195 88 -19 35 -23 52 -19 105 8 126 73 169 316 209 84 14 171 34 195 45 23 11 44 20 46 20 2 1 2 -56 -1 -126z"></path><path d="M6365 2095 c-157 -34 -310 -130 -408 -255 -49 -63 -102 -171 -129 -265 -33 -115 -33 -343 0 -459 74 -258 245 -432 489 -497 103 -28 324 -31 428 -5 144 35 269 113 347 216 42 56 102 173 114 222 l6 28 -176 0 c-142 0 -176 -3 -176 -14 0 -29 -82 -106 -148 -138 -61 -30 -74 -33 -162 -33 -123 0 -186 21 -250 84 -53 51 -83 120 -95 214 l-7 57 522 0 523 0 -6 128 c-9 227 -73 393 -205 534 -83 89 -206 159 -320 184 -83 17 -267 17 -347 -1z m311 -313 c75 -38 133 -128 160 -244 l6 -28 -321 0 c-250 0 -321 3 -321 13 0 34 32 124 57 159 34 50 78 84 140 109 68 27 220 22 279 -9z"></path><path d="M11533 2096 c-145 -28 -252 -81 -322 -161 -62 -72 -85 -136 -89 -258 -4 -105 -3 -110 27 -172 57 -115 167 -179 401 -235 416 -99 476 -131 467 -248 -3 -43 -10 -59 -37 -87 -53 -55 -127 -78 -236 -73 -76 3 -100 9 -149 33 -72 36 -111 83 -127 153 l-13 52 -188 0 -188 0 6 -47 c25 -183 112 -302 275 -381 120 -57 221 -76 405 -75 277 0 452 64 561 202 61 77 85 146 91 257 9 157 -34 250 -154 330 -76 52 -163 81 -410 138 -213 50 -264 69 -307 114 -53 57 -35 145 38 184 64 35 244 26 326 -15 49 -25 90 -83 90 -129 l0 -28 190 0 190 0 0 23 c0 45 -31 143 -63 196 -61 101 -169 176 -312 216 -82 23 -373 30 -472 11z"></path><path d="M9513 1543 c3 -445 7 -539 21 -596 55 -231 187 -334 450 -352 205 -15 387 65 488 215 16 24 17 22 17 -77 l1 -103 190 0 190 0 0 720 0 720 -200 0 -200 0 0 -427 c0 -333 -4 -443 -15 -496 -35 -168 -124 -241 -291 -241 -90 1 -156 31 -196 89 -51 74 -58 147 -58 636 l0 439 -201 0 -200 0 4 -527z"></path></g></svg>